<?xml version="1.0" standalone="no"?><!DOCTYPE svg PUBLIC "-//W3C//DTD SVG 1.1//EN" "http://www.w3.org/Graphics/SVG/1.1/DTD/svg11.dtd"><svg t="1671160317466" class="icon" viewBox="0 0 1024 1024" version="1.1" xmlns="http://www.w3.org/2000/svg" p-id="4171" width="100" height="100" xmlns:xlink="http://www.w3.org/1999/xlink"><path d="M832 320l-64 0 0-32c29-7 64-48.6 64-96 0-70.6-57.4-128-128-128-32.6 0-62.2 12.2-84.8 32.2C594.4 76 562.8 64 528.4 64c-31.6 0-60.8 10.2-84.6 27.4-19.8-17-45.8-27.4-74-27.4-34.2 0-64.8 15.2-85.6 39C260.8 79 228.2 64 192 64c-70.6 0-128 57.4-128 128 0 32.4 12.2 62 32 84.6 0 0.4 0 0.8 0 1.4l0 108c0 53 43 96 96 96l0 446c0 17.6 14.4 32 32 32l512 0c17.6 0 32-14.4 32-32l0-160 64 0c70.6 0 128-57.4 128-128l0-192C960 377.4 902.6 320 832 320zM655.6 608c-3.2 0-6-1.2-8.6-2.8-4.4-2.8-7-8-7-13.6L640 496c0-8.8 7.2-16 16-16 8.8 0 16 7.2 16 16l0 96.2 0 0C672 602.2 664.4 608 655.6 608zM670 456.8c-2.4 3.6-6 6-10.2 7-4.2 0.8-8.6 0-12-2.2-3.6-2.4-6-6-7-10.2-0.8-4.2 0-8.6 2.2-12 2.4-3.6 6-6 10.2-7 4.2-0.8 8.6 0 12 2.2 3.6 2.4 6 6 7 10.2C673.2 448.8 672.4 453.2 670 456.8zM704 320l0 64L448.4 384c-0.2-8.6-7.2-15.6-16-15.6-8.8 0-15.8 7-16 15.6L256 384l0-18 0-63.2c13-7.6 24.6-17.2 34-28.6 2.4-3 4.8-6 7-9.2 3 2.4 6 4.8 9.2 6.8 18.2 12.2 40 19.4 63.4 19.4 12.8 0 25.2-2.2 36.6-6 25.6 40.4 70.6 67.4 122 67.4 44 0 83.4-19.8 109.8-50.8 11.4-13.4 20.4-28.8 26.2-45.8L704 256 704 320zM765.2 210.4c-5-11-16.2-18.4-29.2-18.4l-96 0-14 0c0 0-17.4-1.4-17.4 16.4s-5.8 34.2-15.6 47.4c-14.6 19.8-38.2 32.8-64.8 32.8-29.8 0-55.8-16.2-69.6-40.4-3.2-5.4-5.6-11.2-7.4-17.2-0.2-1.2-0.6-2.2-0.8-3.2-4-11.8-15-20.4-28.2-20.4-7.8 0-15 3-20.4 8 0 0 0 0-0.2 0.2-4.8 4.2-10.6 7.4-16.8 9.4-4.8 1.6-10 2.4-15.4 2.4-15 0-29.4-8-37.6-17.2-20-22.8-47.4-13.6-59.4-11s-24.4 23.4-24.4 23.4c-2.2 4.2-5 8-8 11.6-11.8 13.4-29 22-48.2 22l0 64 0 46 0 52c-17.6 0-32-14.4-32-32l0-70 0-68.6c-15.4-9-26.8-24.2-30.6-42-1-4.2-1.4-8.8-1.4-13.4 0-35.2 28.8-64 64-64 23.6 0 46.6 15.4 60.2 30.8s53.4 15.4 67.8 0c13.6-14.6 28.6-30.8 49.6-30.8 12 0 23.2 4.4 31.8 11.6 3.8 3.2 7.2 7 9.8 11.2 2.2 3.6 4 8.4 6.2 11.6 5.4 6.8 13 11 22.4 11 8.8 0 16.6-3.8 22-10 1.2-1.4 2.4-3 3.4-4.6 4-5 8.4-9.6 13.4-13.6 13.6-10.8 31-17.2 49.6-17.2 21.2 0 40.4 8.2 54.8 21.8 3.4 3.2 13.4 9 26.4 10.2 9 0.8 12.2 0.6 16.4 0 20.6-2.6 28.8-9.4 32.8-13.2 11.6-11.6 27.6-18.8 45.2-18.8 35.2 0 64 28.8 64 64C768 198.4 767 204.6 765.2 210.4zM896 640c0 35.4-28.6 64-64 64l-64 0L768 384l64 0c35.4 0 64 28.6 64 64L896 640z" p-id="4172" fill="#ffffff"></path><path d="M336.4 336.4m-16 0a8 8 0 1 0 32 0 8 8 0 1 0-32 0Z" p-id="4173" fill="#ffffff"></path><path d="M656.4 336.4m-16 0a8 8 0 1 0 32 0 8 8 0 1 0-32 0Z" p-id="4174" fill="#ffffff"></path></svg>