<?xml version="1.0" standalone="no"?><!DOCTYPE svg PUBLIC "-//W3C//DTD SVG 1.1//EN" "http://www.w3.org/Graphics/SVG/1.1/DTD/svg11.dtd"><svg class="icon" width="100px" height="100.00px" viewBox="0 0 1024 1024" version="1.1" xmlns="http://www.w3.org/2000/svg"><path fill="#ffffff" d="M700 972.6h-150c-1.2 0-2.4 0-3.8-0.2l-3.6-0.6c-1.2-0.2-2.4-0.6-3.6-1l-3.6-1.2c-1.2-0.4-2.2-1-3.4-1.6-1-0.6-2.2-1.2-3.2-2-1-0.6-2-1.4-3-2.2-1-0.8-1.8-1.6-2.8-2.6s-1.8-1.8-2.6-2.8c-0.8-1-1.6-2-2.2-3-0.6-1-1.4-2-2-3.2-0.6-1-1.2-2.2-1.6-3.4l-1.2-3.6c-0.4-1.2-0.6-2.4-1-3.6l-0.6-3.6c-0.2-1.2-0.2-2.4-0.2-3.8V876c0-4.4-0.4-9-1.4-13.4-0.8-4.4-2.2-8.6-4-12.8-1.8-4.2-4-8-6.4-11.8-2.6-3.6-5.4-7-8.8-10.2-16.4-16-40.2-24.8-65.2-24.2-45 1-83.2 40.8-83.2 86.6v44.2c0 1.2 0 2.4-0.2 3.8l-0.6 3.6c-0.2 1.2-0.6 2.4-1 3.6l-1.2 3.6c-0.4 1.2-1 2.2-1.6 3.4-0.6 1-1.2 2.2-2 3.2-0.6 1-1.4 2-2.2 3-0.8 1-1.6 1.8-2.6 2.8-0.8 0.8-1.8 1.8-2.8 2.6-1 0.8-2 1.6-3 2.2-1 0.6-2 1.4-3.2 2s-2.2 1.2-3.4 1.6l-3.6 1.2c-1.2 0.4-2.4 0.6-3.6 1l-3.6 0.6c-1.2 0.2-2.4 0.2-3.8 0.2H156.8c-3.8 0-7.6-0.2-11.4-0.6-3.8-0.4-7.6-1-11.4-1.6-3.8-0.8-7.4-1.6-11.2-2.8-3.6-1.2-7.2-2.4-10.8-3.8-3.6-1.4-7-3.2-10.4-5-3.4-1.8-6.6-3.8-9.8-6-3.2-2.2-6.2-4.4-9.2-6.8s-5.8-5-8.6-7.8-5.2-5.6-7.8-8.6c-2.4-3-4.8-6-6.8-9.2s-4.2-6.4-6-9.8c-1.8-3.4-3.4-6.8-5-10.4-1.4-3.6-2.8-7.2-3.8-10.8-1.2-3.6-2-7.4-2.8-11.2-0.8-3.8-1.4-7.6-1.6-11.4-0.4-3.8-0.6-7.6-0.6-11.4v-148.4c0-1.2 0-2.4 0.2-3.8l0.6-3.6c0.2-1.2 0.6-2.4 1-3.6l1.2-3.6c0.4-1.2 1-2.2 1.6-3.4 0.6-1 1.2-2.2 2-3.2 0.6-1 1.4-2 2.2-3s1.6-1.8 2.6-2.8c0.8-0.8 1.8-1.8 2.8-2.6 1-0.8 2-1.6 3-2.2 1-0.6 2-1.4 3.2-2 1-0.6 2.2-1.2 3.4-1.6l3.6-1.2c1.2-0.4 2.4-0.6 3.6-1l3.6-0.6c1.2-0.2 2.4-0.2 3.8-0.2h58c19.4 0 38.2-8.2 53-23.2 4.2-4.2 7.8-8.6 11-13.6 3.2-4.8 6-10 8.2-15.4 2.2-5.4 3.8-11 5-16.8 1.2-5.8 1.6-11.6 1.6-17.4-0.8-44.6-37.6-82.4-80.6-82.4H77.4c-1.2 0-2.4 0-3.8-0.2l-3.6-0.6c-1.2-0.2-2.4-0.6-3.6-1l-3.6-1.2c-1.2-0.4-2.2-1-3.4-1.6s-2.2-1.2-3.2-2c-1-0.6-2-1.4-3-2.2-1-0.8-1.8-1.6-2.8-2.6s-1.8-1.8-2.6-2.8c-0.8-1-1.6-2-2.2-3-0.6-1-1.4-2-2-3.2-0.6-1-1.2-2.2-1.6-3.4l-1.2-3.6c-0.4-1.2-0.6-2.4-1-3.6l-0.6-3.6c-0.2-1.2-0.2-2.4-0.2-3.8v-148.4c0-3.8 0.2-7.6 0.6-11.4 0.4-3.8 1-7.6 1.6-11.4 0.8-3.8 1.6-7.4 2.8-11.2 1.2-3.6 2.4-7.2 3.8-10.8 1.4-3.6 3.2-7 5-10.4 1.8-3.4 3.8-6.6 6-9.8 2.2-3.2 4.4-6.2 6.8-9.2 2.4-3 5-5.8 7.8-8.6s5.6-5.2 8.6-7.8 6-4.8 9.2-6.8c3.2-2.2 6.4-4.2 9.8-6s6.8-3.4 10.4-5c3.6-1.4 7.2-2.8 10.8-3.8 3.6-1.2 7.4-2 11.2-2.8 3.8-0.8 7.6-1.4 11.4-1.6 3.8-0.4 7.6-0.6 11.4-0.6h116.6c1.2 0 2.2-0.2 3.2-0.4s2.2-0.6 3.2-1 2-1 3-1.6c1-0.6 1.8-1.4 2.6-2s1.4-1.6 2-2.6c0.6-1 1.2-1.8 1.6-3 0.4-1 0.8-2 1-3.2s0.4-2.2 0.4-3.2v-13.6c0-2.2 0-4.6 0.2-6.8s0.2-4.6 0.6-6.8c0.2-2.2 0.6-4.6 0.8-6.8 0.4-2.2 0.8-4.6 1.2-6.8 0.4-2.2 1-4.4 1.6-6.6l1.8-6.6c0.6-2.2 1.4-4.4 2.2-6.6 0.8-2.2 1.6-4.2 2.4-6.4s1.8-4.2 2.8-6.2c1-2 2-4.2 3.2-6.2 1-2 2.2-4 3.4-6s2.4-3.8 3.8-5.8c1.2-1.8 2.6-3.8 4-5.6l4.2-5.4c1.4-1.8 3-3.4 4.6-5.2 1.6-1.6 3.2-3.4 4.8-5 1.6-1.6 3.4-3.2 5-4.6 1.8-1.6 3.4-3 5.2-4.4l5.4-4.2c1.8-1.4 3.8-2.6 5.6-3.8s3.8-2.4 5.8-3.6c2-1.2 4-2.2 6-3.4 2-1 4-2 6.2-3 2-1 4.2-1.8 6.4-2.6s4.2-1.6 6.4-2.4c2.2-0.8 4.4-1.4 6.6-2l6.6-1.8c2.2-0.6 4.4-1 6.8-1.4s4.6-0.8 6.8-1c2.2-0.2 4.6-0.6 6.8-0.8 2.2-0.2 4.6-0.4 6.8-0.4h6.8c74.8 1.4 135.8 64 135.8 140v12c0 1.2 0.2 2.2 0.4 3.2s0.6 2.2 1 3.2 1 2 1.6 3c0.6 1 1.4 1.8 2 2.6 0.8 0.8 1.6 1.4 2.6 2s1.8 1.2 3 1.6c1 0.4 2 0.8 3.2 1 1 0.2 2.2 0.4 3.2 0.4H700c3.8 0 7.6 0.2 11.4 0.6 3.8 0.4 7.6 1 11.2 1.6s7.4 1.6 11 2.8c3.6 1.2 7.2 2.4 10.6 3.8 3.6 1.4 7 3 10.2 4.8s6.6 3.8 9.8 5.8c3.2 2.2 6.2 4.4 9.2 6.8 3 2.4 5.8 5 8.4 7.6 2.6 2.6 5.2 5.4 7.6 8.4 2.4 3 4.6 6 6.8 9.2 2.2 3.2 4 6.4 5.8 9.8 1.8 3.4 3.4 6.8 4.8 10.2s2.8 7 3.8 10.6c1.2 3.6 2 7.2 2.8 11 0.8 3.8 1.2 7.4 1.6 11.2s0.6 7.6 0.6 11.4v116.6c0 1.2 0.2 2.2 0.4 3.2s0.6 2.2 1 3.2 1 2 1.6 3c0.6 1 1.4 1.8 2 2.6 0.8 0.8 1.6 1.4 2.6 2s1.8 1.2 3 1.6c1 0.4 2 0.8 3.2 1 1 0.2 2.2 0.4 3.2 0.4h12c77.2 0 140 61.2 140 136.4 0 77.2-62 140-138.2 140h-13.6c-1.2 0-2.2 0.2-3.2 0.4s-2.2 0.6-3.2 1-2 1-3 1.6-1.8 1.4-2.6 2-1.4 1.6-2 2.6c-0.6 1-1.2 1.8-1.6 3-0.4 1-0.8 2-1 3.2-0.2 1-0.4 2.2-0.4 3.2v118.2c0 3.8-0.2 7.6-0.6 11.4-0.4 3.8-1 7.6-1.6 11.2-0.8 3.8-1.6 7.4-2.8 11-1.2 3.6-2.4 7.2-3.8 10.6-1.4 3.6-3 7-4.8 10.2-1.8 3.4-3.8 6.6-5.8 9.8-2.2 3.2-4.4 6.2-6.8 9.2-2.4 3-5 5.8-7.6 8.4-2.6 2.6-5.4 5.2-8.4 7.6s-6 4.6-9.2 6.8c-3.2 2.2-6.4 4-9.8 5.8-3.4 1.8-6.8 3.4-10.2 4.8-3.6 1.4-7 2.8-10.6 3.8-3.6 1.2-7.2 2-11 2.8-3.8 0.8-7.4 1.2-11.2 1.6-4 0.4-7.8 0.6-11.6 0.6z" /></svg>