<?xml version="1.0" standalone="no"?><!DOCTYPE svg PUBLIC "-//W3C//DTD SVG 1.1//EN" "http://www.w3.org/Graphics/SVG/1.1/DTD/svg11.dtd"><svg t="1671160392199" class="icon" viewBox="0 0 1024 1024" version="1.1" xmlns="http://www.w3.org/2000/svg" p-id="5199" xmlns:xlink="http://www.w3.org/1999/xlink" width="100" height="100"><path d="M938.666667 362.666667c23.466667 0 42.666667 19.2 42.666666 42.666666s-19.2 42.666667-42.666666 42.666667h-44.8C874.666667 625.066667 731.733333 768 554.666667 787.2V896h128c23.466667 0 42.666667 19.2 42.666666 42.666667s-19.2 42.666667-42.666666 42.666666H341.333333c-23.466667 0-42.666667-19.2-42.666666-42.666666s19.2-42.666667 42.666666-42.666667h128v-108.8C292.266667 768 151.466667 625.066667 130.133333 448H85.333333c-23.466667 0-42.666667-19.2-42.666666-42.666667s19.2-42.666667 42.666666-42.666666h44.8C151.466667 170.666667 315.733333 21.333333 512 21.333333s360.533333 149.333333 381.866667 341.333334H938.666667zM512 704c164.266667 0 298.666667-134.4 298.666667-298.666667S676.266667 106.666667 512 106.666667s-298.666667 134.4-298.666667 298.666666 134.4 298.666667 298.666667 298.666667z" fill="#ffffff" p-id="5200"></path><path d="M512 170.666667c-23.466667 0-42.666667 19.2-42.666667 42.666666s19.2 42.666667 42.666667 42.666667c83.2 0 149.333333 66.133333 149.333333 149.333333 0 23.466667 19.2 42.666667 42.666667 42.666667s42.666667-19.2 42.666667-42.666667c0-130.133333-104.533333-234.666667-234.666667-234.666666" fill="#ffffff" p-id="5201"></path></svg>